<svg xmlns="http://www.w3.org/2000/svg" width="4529" height="2998.6"><path d="m324 2998-15-1c-55-6-114-28-160-62A358 358 0 0 1 4 2589a357 357 0 0 1 301-300 338 338 0 0 1 282 100c27 27 44 50 64 86l4 8-15 11-83 59-13 9-6-11a207 207 0 0 0-238-119 226 226 0 0 0-118 74 220 220 0 0 0-12 259 213 213 0 0 0 200 95 212 212 0 0 0 165-118l7-13 56 40 55 39-6 11a353 353 0 0 1-263 178c-9 1-54 2-60 1zm472-359v-345h134v248h350v-248h134v691h-134v-304H930v304H796v-346zm753 285 153-346 126-284h188l153 341 154 346 2 4h-161l-31-69-31-68h-358l-31 69-30 68h-161l27-61zm497-215-123-275-118 275 120 1 121-1zm387-70v-345h188l148 207 147 207 1-207v-207h135v691h-54l-54-1-187-259-188-260-1 260v260h-135v-346zm863 0v-345h483v139h-348v138h322v139h-322v138h398v137h-533v-346zm722 0v-345h135v554h376v137h-511v-346zm-2314-521c-144-6-304-50-434-118-99-52-178-111-261-193a993 993 0 0 1-152-191l-18-30 25-13 273-140 21 28a731 731 0 0 0 510 316c37 6 149 5 189-1 45-7 99-19 134-31 2 0-2-7-12-19a1056 1056 0 0 1 10-1353c-1-4-65-21-107-28-66-11-168-12-227-3a736 736 0 0 0-498 317l-26 38-33-17a40978 40978 0 0 0-266-137c-1-1 39-65 55-89A1058 1058 0 0 1 1846 2c137 13 254 46 375 107l57 28 20-11A1006 1006 0 0 1 2796 0a1037 1037 0 0 1 738 300c74 73 133 148 180 230l8 13-117 60-150 77-32 18-25-38a728 728 0 0 0-834-287l18 23a1057 1057 0 0 1 229 768c-23 205-100 395-224 547-28 35-27 33-18 36l44 12a725 725 0 0 0 801-324 14488 14488 0 0 1 300 151c3 3-56 90-92 135a1054 1054 0 0 1-1318 275l-27-14-33 17c-163 87-350 128-540 119zm610-600a741 741 0 0 0 156-574 697 697 0 0 0-175-362l-18-20-18 18a716 716 0 0 0-2 959l19 22 8-8 30-35z"/></svg>