<svg width="10525" height="5287" viewBox="0 0 10525 5287" fill="none" xmlns="http://www.w3.org/2000/svg">
<g clip-path="url(#clip0_177_79)">
<path fill-rule="evenodd" clip-rule="evenodd" d="M2539.57 4481.77C2512.32 4496.63 2482.58 4511.5 2450.38 4521.41C2437.99 4526.37 2428.08 4531.32 2415.69 4536.28C2358.7 4561.05 2306.67 4600.7 2269.51 4652.73C2242.25 4694.85 2237.3 4746.88 2257.12 4791.47C2276.94 4833.59 2321.54 4860.85 2368.61 4858.37C2452.85 4858.37 2519.75 4813.77 2542.05 4751.83C2539.57 4729.53 2537.09 4684.93 2537.09 4657.68C2539.57 4610.61 2539.57 4528.84 2539.57 4481.77ZM2341.36 4950.04C2326.49 4950.04 2311.63 4950.04 2296.76 4947.56C2219.96 4940.13 2155.54 4925.27 2115.9 4875.71C2073.78 4821.2 2058.91 4751.83 2071.3 4684.93C2091.12 4583.35 2180.31 4551.14 2254.64 4516.46C2294.28 4499.11 2336.4 4484.25 2371.09 4471.86L2413.21 4456.99C2447.9 4447.08 2482.58 4429.74 2512.32 4409.92C2529.66 4395.05 2537.09 4355.41 2534.62 4333.11C2529.66 4300.9 2502.41 4231.53 2430.55 4234C2304.2 4234 2274.46 4340.54 2257.12 4402.48L2118.37 4347.98C2165.45 4234 2286.85 4157.2 2423.12 4157.2C2470.2 4157.2 2514.79 4164.63 2556.91 4181.97C2670.88 4231.53 2720.44 4305.86 2713 4434.69V4719.62C2713 4761.74 2713 4853.41 2745.21 4875.71C2762.56 4888.1 2784.86 4888.1 2802.2 4875.71V4900.49C2789.81 4927.74 2762.56 4942.61 2732.83 4940.13C2708.05 4940.13 2680.8 4932.7 2658.5 4922.79C2623.81 4907.92 2594.08 4880.67 2574.26 4848.46C2517.27 4915.36 2430.55 4952.52 2341.36 4950.04ZM8731.17 4950.04C8550.31 4950.04 8448.72 4863.32 8448.72 4675.02V4164.63H8617.2V4675.02C8617.2 4811.29 8698.97 4845.98 8760.91 4845.98C8835.24 4845.98 8904.61 4818.73 8936.82 4746.88V4164.63H9107.78V4935.18H8939.3V4848.46C8884.79 4902.97 8815.41 4950.04 8731.17 4950.04ZM2876.53 4935.18V4164.63H3045.01V4273.65C3109.43 4204.27 3183.75 4159.68 3287.82 4162.15V4323.2C3263.04 4315.77 3238.26 4310.81 3211.01 4310.81C3139.16 4310.81 3079.69 4318.24 3045.01 4375.23V4937.65L2876.53 4935.18ZM1816.1 4935.18V4494.16C1816.1 4382.66 1801.24 4343.02 1776.46 4315.77C1751.68 4288.51 1717 4258.78 1669.92 4258.78C1575.77 4258.78 1508.87 4286.04 1474.19 4367.8V4937.65H1305.71V3750.87H1474.19V4258.78C1528.7 4201.8 1605.5 4152.24 1694.7 4152.24C1783.89 4152.24 1858.22 4159.68 1907.77 4209.23C1962.28 4263.74 1984.58 4343.02 1984.58 4476.81V4935.18H1816.1Z" fill="black"/>
<path fill-rule="evenodd" clip-rule="evenodd" d="M3377.02 4935.18H3545.49V3750.87H3377.02V4935.18ZM4031.11 4231.53C3875.02 4231.53 3795.73 4402.48 3795.73 4551.14C3795.73 4699.8 3877.5 4870.76 4031.11 4870.76C4120.3 4870.76 4174.81 4801.38 4204.54 4759.26C4246.66 4697.32 4268.96 4625.47 4266.48 4548.66C4268.96 4400.01 4187.2 4231.53 4031.11 4231.53ZM4031.11 4950.04C3785.82 4950.04 3622.3 4798.91 3622.3 4548.66C3622.3 4298.42 3785.82 4149.77 4031.11 4149.77C4276.39 4149.77 4439.92 4298.42 4439.92 4548.66C4442.39 4796.43 4273.92 4950.04 4031.11 4950.04ZM5217.89 4950.04C5091.53 4950.04 5017.2 4895.53 5017.2 4769.17V4246.39H4871.02C4841.29 4246.39 4806.61 4246.39 4769.44 4248.87V4751.83C4769.44 4823.68 4791.74 4850.94 4836.34 4850.94C4880.93 4850.94 4925.53 4841.03 4962.7 4816.25L4987.47 4848.46C4932.96 4915.36 4875.98 4947.56 4796.7 4947.56C4670.34 4947.56 4596.01 4893.06 4596.01 4766.7V4253.83C4519.2 4256.3 4462.22 4261.26 4449.83 4261.26L4395.32 4266.21L4469.65 4162.15H4598.49V4023.41L4766.96 3869.79V4162.15H5017.2V4023.41L5185.68 3869.79V4162.15H5423.53L5478.04 4256.3L5433.44 4253.83C5396.28 4251.35 5314.52 4248.87 5183.2 4246.39V4751.83C5183.2 4823.68 5205.5 4850.94 5252.58 4850.94C5297.18 4850.94 5341.77 4841.03 5381.41 4816.25L5406.19 4848.46C5354.16 4917.83 5294.7 4950.04 5217.89 4950.04Z" fill="black"/>
<path fill-rule="evenodd" clip-rule="evenodd" d="M6023.12 4400.01C6000.82 4263.74 5909.15 4229.05 5854.64 4229.05C5743.15 4229.05 5681.21 4298.42 5651.48 4400.01H6023.12ZM5852.17 4950.04C5614.31 4950.04 5453.27 4796.43 5453.27 4538.75C5453.27 4303.38 5621.75 4149.77 5852.17 4149.77C6042.94 4149.77 6179.21 4258.78 6194.08 4449.56L6199.03 4479.29H5626.7C5626.7 4509.02 5626.7 4521.41 5626.7 4533.8C5626.7 4714.67 5725.81 4845.98 5884.38 4845.98C6020.65 4845.98 6090.02 4793.95 6134.62 4749.35L6166.83 4779.09C6094.97 4893.06 5998.35 4950.04 5852.17 4950.04ZM7294.15 4937.65H7462.63V3753.34H7294.15V4937.65ZM7784.72 4811.29C7834.27 4838.55 7891.26 4853.41 7948.24 4853.41C8101.86 4853.41 8196.01 4729.53 8196.01 4553.62C8196.01 4377.71 8104.33 4256.3 7950.72 4256.3C7891.26 4256.3 7834.27 4271.17 7784.72 4303.38V4811.29ZM7987.88 4950.04C7916.03 4947.56 7846.66 4922.79 7787.2 4880.67V4932.7H7618.72V3750.87H7787.2V4221.62C7844.18 4181.97 7916.03 4152.24 7982.93 4152.24C8210.87 4152.24 8369.44 4303.38 8369.44 4548.66C8369.44 4801.38 8215.83 4950.04 7987.88 4950.04ZM9211.83 4167.11L9380.31 4162.15V4271.17C9434.82 4211.71 9511.63 4159.68 9605.78 4159.68L9692.5 4350.45C9692.5 4350.45 9613.21 4308.33 9546.32 4308.33C9474.46 4308.33 9410.05 4315.77 9380.31 4375.23V4935.18L9211.83 4940.13V4167.11ZM6977.01 4935.18H7135.58V4234H6977.01V4935.18ZM6969.58 4040.75L7056.29 3906.96L7143.01 4040.75L7056.29 4174.54L6969.58 4040.75Z" fill="black"/>
<path fill-rule="evenodd" clip-rule="evenodd" d="M6513.91 4935.18V3845.02C6424.71 3845.02 6283.49 3847.49 6080.32 3854.93L5998.56 3859.88L6090.23 3753.34H7073.85L7083.76 3758.3L7155.61 3859.88L7081.28 3854.93C7036.69 3852.45 6878.12 3842.54 6687.34 3842.54H6682.39V4932.7H6513.91V4935.18ZM9831.45 5287L9856.23 5244.88C9873.57 5215.15 9977.63 5036.76 10056.9 4870.76C10037.1 4826.16 9732.35 4164.63 9732.35 4164.63H9918.17L10143.6 4717.14L10384 4167.11H10525.2L10500.4 4219.14L10014.8 5289.48L9831.45 5287ZM651.831 4969.86C463.531 4969.86 285.142 4910.4 163.738 4776.61C-69.1596 4521.41 -51.8162 4127.47 203.38 3894.57C213.29 3884.66 220.723 3877.23 230.634 3869.79C349.56 3770.69 500.696 3736 659.264 3736C857.474 3736 1040.82 3802.9 1172.13 3963.94L1035.86 4068C964.013 3963.94 869.863 3874.75 778.19 3845.02C738.548 3832.63 698.906 3827.67 656.786 3825.19C582.457 3825.19 510.606 3845.02 446.188 3882.18C319.829 3951.55 238.067 4102.69 210.813 4261.26C186.036 4424.78 233.111 4590.78 339.65 4714.67C421.411 4808.82 535.382 4873.23 664.219 4873.23C691.473 4873.23 716.249 4870.76 743.503 4865.8C877.296 4841.03 991.266 4732.01 1068.07 4593.26L1234.07 4657.68C1117.63 4850.94 887.206 4969.86 651.831 4969.86Z" fill="black"/>
</g>
<g clip-path="url(#clip1_177_79)">
<path fill-rule="evenodd" clip-rule="evenodd" d="M5885.89 3023.76C5848.61 3040.33 5811.33 3056.89 5774.05 3069.32C5736.77 3081.75 5699.49 3094.17 5662.21 3102.46C5566.95 3127.31 5467.53 3139.74 5368.12 3139.74C5289.42 3139.74 5210.72 3131.45 5136.16 3119.03C5078.17 3106.6 5020.18 3094.17 4966.34 3073.46C4419.57 2887.07 4021.93 2340.31 3997.08 1685.85C3997.08 1669.28 3997.08 1652.71 3997.08 1636.14C3997.08 1632 3997.08 1627.86 3997.08 1627.86C3997.08 1623.72 3997.08 1623.72 3997.08 1623.72C3997.08 1578.15 4001.22 1532.59 4001.22 1482.88V1462.17C4005.36 1429.04 4009.5 1395.9 4013.64 1362.76C4013.64 1354.48 4017.79 1350.34 4017.79 1342.05C4021.93 1325.48 4021.93 1308.91 4026.07 1292.35C4075.78 1060.39 4171.05 844.995 4303.59 666.883C4485.85 426.64 4730.23 248.528 5011.9 165.685C5107.17 140.832 5206.58 124.264 5301.85 115.98H5305.99C5322.56 115.98 5339.13 115.98 5359.84 115.98H5380.55C5388.83 115.98 5392.98 115.98 5401.26 115.98C5525.52 115.98 5641.5 140.832 5728.49 169.827H6072.29C5952.16 107.695 5695.35 4.14209 5368.12 4.14209C5310.13 4.14209 5248 8.28422 5185.87 12.4264C4879.35 45.5634 4585.26 165.685 4340.87 347.939H3723.7L3616 530.193H3690.56C3843.82 521.909 3997.08 517.767 4150.34 509.482C3980.51 683.452 3847.96 890.558 3773.4 1110.09C3702.98 1296.49 3673.99 1499.45 3686.42 1698.27C3702.98 2112.49 3876.95 2497.71 4179.33 2791.8C4498.27 3098.32 4920.77 3264 5372.26 3264C5985.3 3264 6519.64 2953.34 6822.01 2493.56L6548.63 2390.01C6395.37 2671.68 6126.13 2903.64 5885.89 3023.76ZM6822.01 343.797H5011.9C4912.49 381.076 4817.22 430.782 4730.23 492.914H5140.31V2936.77C5210.72 2953.34 5281.14 2961.63 5355.7 2961.63C5397.12 2961.63 5442.68 2957.48 5484.1 2953.34V492.914C5740.91 497.056 5952.16 501.198 6121.99 505.34C6279.39 509.482 6403.66 509.482 6503.07 513.624C6759.88 521.909 6842.72 526.051 6855.15 526.051L6904.85 530.193L6822.01 343.797ZM6784.73 865.706C6784.73 865.706 6735.03 791.147 6660.47 691.736C6577.63 687.594 6453.36 683.452 6271.11 679.31C6411.94 865.706 6507.21 1023.11 6507.21 1023.11L6784.73 865.706Z" fill="black"/>
</g>
<defs>
<clipPath id="clip0_177_79">
<rect width="10525" height="1551" fill="white" transform="translate(0 3736)"/>
</clipPath>
<clipPath id="clip1_177_79">
<rect width="3293" height="3264" fill="white" transform="translate(3616)"/>
</clipPath>
</defs>
</svg>
