<svg width="12271" height="5287" viewBox="0 0 12271 5287" fill="none" xmlns="http://www.w3.org/2000/svg">
<path d="M988 3239.24V909.18H1418.67V2065.63L3028.09 909.18H3611.47L2249.12 1852.87L3669.8 3239.24H3103.59L1948.85 2060.48L1418.67 2432.81V3239.24H988Z" fill="black"/>
<path d="M4531.22 909.18H4102.27V3240.96H4531.22V909.18Z" fill="black"/>
<path d="M5270.69 3239.24V909.18H5699.64V2065.63L7310.78 909.18H7892.44L6531.8 1852.87L7952.49 3239.24H7386.27L6231.54 2060.48L5699.64 2432.81V3239.24H5270.69Z" fill="black"/>
<path d="M8623.34 2110.24C8623.34 2391.63 8728 2612.97 8937.33 2774.26C9148.37 2935.54 9412.61 3016.18 9730.03 3016.18C10052.6 3016.18 10318.6 2933.83 10526.2 2770.83C10735.5 2607.82 10840.2 2376.19 10840.2 2075.93C10840.2 1887.19 10795.5 1720.75 10704.6 1580.06C10615.4 1437.65 10485 1327.84 10313.4 1250.62C10141.8 1171.7 9949.66 1132.23 9735.18 1132.23C9431.48 1132.23 9168.96 1207.73 8949.34 1358.72C8731.43 1507.99 8623.34 1758.5 8623.34 2110.24ZM8180.66 2105.09C8180.66 1717.32 8324.79 1415.34 8614.76 1197.43C8904.73 977.811 9277.06 868 9735.18 868C10035.4 868 10304.8 919.474 10545 1022.42C10785.3 1125.37 10968.8 1267.78 11094.1 1453.09C11221.1 1636.68 11284.6 1844.29 11284.6 2077.64C11284.6 2314.42 11217.6 2525.47 11085.5 2712.49C10953.4 2899.51 10764.7 3040.21 10521 3136.29C10277.4 3232.38 10014.9 3280.42 9733.46 3280.42C9428.05 3280.42 9155.24 3227.23 8915.02 3120.85C8674.81 3014.47 8492.94 2870.34 8369.4 2686.75C8242.43 2503.16 8180.66 2309.27 8180.66 2105.09Z" fill="black"/>
<path d="M4395.58 3882.67L4242.87 4225.83L4097.03 3882.67H3982.07L3870.54 4409.43H3990.65L4064.43 4073.13L4215.42 4409.43H4270.32L4424.74 4067.98L4498.52 4409.43H4618.63L4510.54 3882.67H4395.58Z" fill="black"/>
<path d="M5646.44 3882.67H5529.77V4409.43H5907.25V4304.76H5646.44V3882.67Z" fill="black"/>
<path d="M5099 3882.67H4984.04V4409.43H5099V3882.67Z" fill="black"/>
<path d="M7477.1 4206.96L7230.02 3882.67H7123.64V4409.43H7238.6V4074.84L7494.26 4409.43H7592.06V3882.67H7477.1V4206.96Z" fill="black"/>
<path d="M6447.55 3879.24L6221.07 4409.42H6337.74L6387.5 4291.03H6610.55L6658.6 4409.42H6778.7L6553.93 3879.24H6447.55ZM6430.39 4189.8L6500.74 4018.22L6571.09 4189.8H6430.39Z" fill="black"/>
<path d="M8216.62 3874.09C8055.34 3874.09 7936.95 3995.91 7936.95 4145.19V4146.9C7936.95 4296.18 8051.9 4418 8214.91 4418C8377.91 4418 8496.3 4296.18 8496.3 4145.19V4143.47C8496.3 3995.91 8381.34 3874.09 8216.62 3874.09ZM8376.19 4148.62C8376.19 4239.56 8310.99 4311.62 8216.62 4311.62C8123.97 4311.62 8058.77 4237.84 8058.77 4146.9V4145.19C8058.77 4054.25 8123.97 3982.18 8216.62 3982.18C8309.28 3982.18 8376.19 4055.96 8376.19 4148.62Z" fill="black"/>
</svg>
