<svg width="1272" height="620" viewBox="0 0 1272 620" fill="none" xmlns="http://www.w3.org/2000/svg">
<path fill-rule="evenodd" clip-rule="evenodd" d="M879.555 354.189H850.096L936.522 184.459H940.619H965.981H970.468L1056.89 354.189H1027.04L1004.41 309.513H902.381L879.555 354.189ZM993.489 288.638L953.105 209.431L912.721 288.638H993.489ZM744.747 179.972L764.841 156.756H809.517L744.747 179.972ZM687.195 354.579H838.976V335.265H713.337V276.542H806.591V256.643H713.337V203.578H838.196V184.654H687.195V354.579ZM480.787 184.459H504.394H592.575C622.424 184.459 646.811 206.699 646.811 233.817C646.811 257.423 628.277 277.323 603.695 282.005L656.175 354.384H625.351L573.651 283.175H504.394V354.384H480.787V283.175V184.459ZM593.941 204.748L595.502 204.944L597.062 205.139L598.623 205.529L600.184 205.919L601.549 206.504L602.915 207.09L604.281 207.675L605.646 208.455L607.012 209.236L608.182 210.016L609.353 210.991L610.524 211.967L611.499 212.942L612.474 213.918L613.45 215.088L614.425 216.259L615.206 217.429L615.986 218.6L616.767 219.771L617.352 220.941L617.937 222.112L618.522 223.282L618.913 224.453L619.303 225.623L619.693 226.794L619.888 228.16L620.083 229.525L620.278 230.891V232.256V233.622V234.988V236.353L620.083 237.719L619.888 239.085L619.693 240.45L619.303 241.816L618.913 242.987L618.522 244.157L617.937 245.328L617.352 246.498L616.767 247.669L615.986 248.839L615.206 250.01L614.425 251.18L613.45 252.351L612.474 253.521L611.499 254.497L610.524 255.472L609.353 256.448L608.182 257.423L607.012 258.204L605.646 258.984L604.281 259.764L602.915 260.35L601.549 260.935L600.184 261.52L598.623 261.91L597.062 262.301L595.502 262.691L593.941 262.886L592.38 263.081H590.624H505.759V204.553H590.624H592.575L593.941 204.748ZM335.639 174.509C287.646 174.509 248.823 213.333 248.823 261.325C248.823 309.318 287.646 348.141 335.639 348.141C383.632 348.141 422.455 309.318 422.455 261.325C422.455 213.333 383.437 174.509 335.639 174.509ZM335.639 155C271.844 155 219.95 202.602 219.95 261.325C219.95 320.048 271.649 367.65 335.639 367.65C399.629 367.65 451.329 320.048 451.329 261.325C451.134 202.602 399.434 155 335.639 155ZM51 354.579V184.654H72.6552V336.045H201.026V354.579H51ZM1069.18 354.579H1221.55V335.265H1093.18V184.654H1069.38V354.579H1069.18ZM522.537 465.001H509.661L547.704 398.865H549.46H560.58H562.531L600.574 465.001H587.503L577.553 447.638H532.682L522.537 465.001ZM572.481 439.444L554.727 408.62L536.974 439.444H572.481ZM624.96 398.865H634.91H671.978C684.463 398.865 694.803 407.449 694.803 417.984C694.803 427.153 687 434.957 676.66 436.713L698.705 464.806H685.829L663.979 437.103H637.251V465.001H624.765V437.298V398.865H624.96ZM672.368 406.864H672.953L673.538 407.059L674.124 407.254L674.709 407.449L675.294 407.644L675.879 407.839L676.465 408.034L677.05 408.229L677.635 408.62L678.221 409.01L678.611 409.4L679.001 409.79L679.391 410.18L679.781 410.571L680.171 410.961L680.562 411.351L680.952 411.741L681.342 412.131L681.732 412.521L681.927 412.912L682.122 413.302L682.317 413.692L682.513 414.082L682.708 414.667L682.903 415.253V415.838V416.423V417.009V417.594V418.179V418.764V419.35V419.935V420.52V421.105L682.708 421.691L682.513 422.276L682.317 422.666L682.122 423.056L681.927 423.447L681.732 423.837L681.342 424.227L680.952 424.617L680.562 425.007L680.171 425.398L679.781 425.788L679.391 426.178L679.001 426.568L678.611 426.958L678.221 427.348L677.635 427.739L677.05 428.129L676.465 428.324L675.879 428.519L675.294 428.714L674.709 428.909L674.124 429.104L673.538 429.299L672.953 429.494H672.368H671.782H671.002H637.836V406.669H671.002H671.782L672.368 406.864ZM434.746 398.865H444.695H481.763C494.249 398.865 504.589 407.449 504.589 417.984C504.589 424.617 500.492 430.47 494.444 433.982C490.347 436.323 486.055 436.908 481.373 437.103C479.032 437.103 476.495 437.103 473.959 437.103H447.232V465.001H434.746V437.298V398.865ZM482.153 406.864H482.738L483.324 407.059L483.909 407.254L484.494 407.449L485.079 407.644L485.665 407.839L486.25 408.034L486.835 408.229L487.421 408.62L488.006 409.01L488.591 409.4L488.981 409.79L489.372 410.18L489.762 410.571L490.152 410.961L490.542 411.351L490.932 411.741L491.322 412.131L491.518 412.521L491.713 412.912L491.908 413.302L492.103 413.692L492.298 414.082L492.493 414.667L492.688 415.253L492.883 415.838V416.423V417.009V417.594V418.179V418.764V419.35V419.935V420.52L492.688 421.105L492.493 421.691L492.298 422.276L492.103 422.666L491.908 423.056L491.713 423.447L491.518 423.837L491.322 424.227L490.932 424.617L490.542 425.007L490.152 425.398L489.762 425.788L489.372 426.178L488.981 426.568L488.591 426.958L488.006 427.348L487.421 427.739L486.835 428.129L486.25 428.324L485.665 428.519L485.079 428.714L484.494 428.909L483.909 429.104L483.324 429.299L482.738 429.494H482.153H481.568H480.787H447.622V406.669H480.787H481.568L482.153 406.864ZM769.719 443.736L781.034 442.956C781.619 446.272 782.79 449.004 784.741 451.15C786.692 453.296 789.813 455.051 793.91 456.222C798.007 457.588 802.689 458.173 807.957 458.173C812.639 458.173 816.736 457.783 820.247 456.612C823.759 455.637 826.49 454.271 828.051 452.515C829.807 450.759 830.587 449.004 830.587 446.858C830.587 444.712 829.807 442.956 828.051 441.395C826.49 439.834 823.564 438.469 819.857 437.493C817.321 436.713 812.054 435.737 803.469 434.177C795.081 432.811 789.228 431.445 785.911 430.08C781.619 428.519 778.303 426.373 776.157 424.032C774.011 421.496 773.035 418.764 773.035 415.838C773.035 412.521 774.401 409.4 776.937 406.474C779.473 403.547 783.375 401.401 788.447 399.84C793.52 398.28 799.177 397.694 805.225 397.694C812.054 397.694 817.906 398.475 823.174 400.036C828.441 401.596 832.343 403.937 835.074 407.059C837.806 410.18 839.366 413.692 839.561 417.399L828.246 418.179C827.661 414.082 825.515 410.766 821.808 408.62C818.297 406.474 812.834 405.498 805.811 405.498C798.397 405.498 793.13 406.474 789.813 408.425C786.496 410.375 784.741 412.717 784.741 415.448C784.741 417.789 785.911 419.74 788.252 421.301C790.593 422.861 796.641 424.422 806.591 425.983C816.346 427.544 823.174 429.104 826.88 430.275C832.148 432.031 836.05 434.372 838.781 436.908C841.317 439.639 842.488 442.761 842.488 446.272C842.488 449.784 841.122 453.101 838.391 456.222C835.66 459.344 831.563 461.685 826.295 463.44C821.028 465.196 815.175 465.977 808.737 465.977C800.543 465.977 793.52 465.196 787.862 463.44C782.204 461.685 777.912 459.148 774.596 455.637C771.67 452.125 769.914 448.223 769.719 443.736ZM728.944 418.374H741.235V465.001H728.944V418.374ZM728.944 398.865H741.235V411.156H728.944V398.865ZM156.935 244.157H177.029L207.074 185.825H181.516L156.935 244.157Z" fill="black"/>
</svg>
