<svg width="3006" height="937" viewBox="0 0 3006 937" fill="none" xmlns="http://www.w3.org/2000/svg">
<g clip-path="url(#clip0_178_136)">
<path d="M93.4549 318.156L169.276 475.792L245.697 318.156H289.152V505.761H259.183V349.923H258.583L183.362 505.761H155.79L80.5683 349.624H79.9689V505.761H50V318.156H93.4549Z" fill="black"/>
<path d="M527.404 340.933H528.004L568.162 428.442H486.647L527.404 340.933ZM416.52 505.761H449.485L476.457 449.12H578.351L604.724 505.761H640.087L545.985 318.156H510.622L416.52 505.761Z" fill="black"/>
<path d="M837.881 505.761H806.114V429.041L713.211 318.156H751.271L823.197 407.463L893.623 318.156H930.185L837.881 429.041V505.761Z" fill="black"/>
<path d="M1085.12 419.751H1158.25C1185.22 419.751 1210.39 426.643 1210.39 451.218C1210.39 471.896 1192.71 485.083 1165.14 485.083H1084.82L1085.12 419.751ZM1053.36 505.761H1169.63C1217.28 505.761 1242.46 479.688 1242.46 451.817C1242.46 428.442 1226.58 411.359 1196.91 406.564V405.965C1219.38 398.772 1232.57 383.788 1232.57 363.709C1232.57 345.128 1220.28 331.642 1204.4 324.45C1190.01 318.156 1161.84 318.156 1140.56 318.156H1053.36V505.761ZM1085.12 338.835H1149.26C1176.83 338.835 1200.5 342.431 1200.5 368.804C1200.5 388.583 1185.82 399.072 1149.26 399.072H1085.12V338.835Z" fill="black"/>
<path d="M1418.68 419.751V485.083H1553.54V505.761H1386.61V318.156H1552.34V338.835H1418.68V399.072H1543.35V419.751H1418.68Z" fill="black"/>
<path d="M1726.76 318.156V485.083H1854.12V505.761H1694.99V318.156H1726.76Z" fill="black"/>
<path d="M2009.96 318.156V485.083H2137.03V505.761H1978.2V318.156H2009.96Z" fill="black"/>
<path d="M2268.89 318.156H2300.66V505.761H2268.89V318.156Z" fill="black"/>
<path d="M2607.24 505.761L2480.78 355.318H2480.18V505.761H2450.21V318.156H2484.07L2611.44 470.398H2612.04V318.156H2642.01V505.761H2607.24Z" fill="black"/>
<path d="M2821.52 419.751V485.083H2956.68V505.761H2789.75V318.156H2955.78V338.835H2821.52V399.072H2946.49V419.751H2821.52Z" fill="black"/>
<path d="M2044.13 615.446L1995.88 554.909H1995.58V615.446H1979.09V534.83H1998.57L2046.82 595.367H2047.12V534.83H2063.31V615.446H2044.13Z" fill="black"/>
<path d="M2139.73 580.383V602.859H2193.97V615.446H2122.95V534.83H2193.07V547.417H2139.73V567.796H2190.67V580.383H2139.73Z" fill="black"/>
<path d="M2326.43 615.446L2306.35 553.71H2306.05L2285.98 615.446H2267.39L2240.72 534.83H2259L2277.28 597.465H2277.58L2297.66 534.83H2315.35L2335.42 597.465H2335.72L2354.3 534.83H2371.99L2344.71 615.446H2326.43Z" fill="black"/>
<path d="M2454.1 534.83H2474.78L2497.86 570.793L2520.93 534.83H2541.61L2506.55 584.878V615.446H2489.46V584.878L2454.1 534.83Z" fill="black"/>
<path d="M2635.11 605.257C2616.23 605.257 2605.14 592.97 2605.14 575.288C2605.14 557.607 2615.93 545.319 2635.11 545.319C2653.99 545.319 2665.08 557.607 2665.08 575.288C2665.08 592.97 2654.29 605.257 2635.11 605.257ZM2635.11 617.844C2669.28 617.844 2682.76 598.065 2682.76 575.288C2682.76 552.512 2669.28 532.732 2635.11 532.732C2600.95 532.732 2587.76 552.512 2587.76 575.288C2587.76 598.065 2600.95 617.844 2635.11 617.844Z" fill="black"/>
<path d="M2754.69 571.092V547.417H2784.06C2793.05 547.417 2798.44 550.714 2798.44 559.105C2798.44 568.096 2793.35 571.092 2784.06 571.092H2754.69ZM2737.61 615.446H2754.69V583.679H2783.46C2796.04 583.679 2797.54 591.771 2797.54 603.459C2797.54 609.453 2798.44 613.349 2799.64 615.746H2817.92C2814.63 611.251 2814.63 602.26 2814.63 598.364C2814.63 586.976 2812.53 578.585 2802.94 576.487V576.187C2810.43 573.79 2816.42 567.196 2816.42 556.707C2816.42 544.12 2809.83 534.83 2789.15 534.83H2737.91L2737.61 615.446Z" fill="black"/>
<path d="M2933.9 615.446L2903.63 578.285L2889.84 590.572V615.446H2872.76V534.83H2889.84V572.291L2931.2 534.83H2954.58L2916.82 567.496L2956.97 615.446H2933.9Z" fill="black"/>
</g>
<defs>
<clipPath id="clip0_178_136">
<rect width="2906.98" height="300" fill="white" transform="translate(50 318)"/>
</clipPath>
</defs>
</svg>
