<svg width="490" height="490" viewBox="0 0 490 490" fill="none" xmlns="http://www.w3.org/2000/svg">
<g clip-path="url(#clip0_320_104)">
<rect width="490" height="490" rx="245" fill="#FFCBAC"/>
<path d="M135.5 409.5L129 278.5L242.5 315.5L232.5 409.5L143 421.5L135.5 409.5Z" fill="#FF9000"/>
<path d="M414 498.5C414 548.758 349.292 577 248.5 577C147.708 577 66 536.258 66 486C66 435.742 147.708 395 248.5 395C349.292 395 414 448.242 414 498.5Z" fill="white"/>
<path d="M284.5 312C268 320.5 239.833 324 226 324C228 364 220.984 380 218.984 395.5C217.384 407.9 264.5 430.5 296.984 414.5C298.651 399.167 302.384 366.1 303.984 356.5C305.584 346.9 305.651 314.167 305.484 299C304.484 300 299.392 304.328 284.5 312Z" fill="#F9C09F" stroke="#F9C09F"/>
<path d="M226 325C226.304 324.994 226.633 324.993 226.987 324.998C273.057 324.774 291.106 308.929 306 299L305 346.5C319 352.167 337.3 359.6 298.5 344C261.173 328.992 235.97 325.122 226.987 324.998C226.66 324.999 226.331 325 226 325Z" fill="#3F3F3F" fill-opacity="0.12"/>
<path d="M342 228C342 281.019 291.632 324 229.5 324C187 324 169.5 320.5 136.5 286.5C122.43 270.472 117 249.567 117 228C117 174.981 167.368 132 229.5 132C291.632 132 342 174.981 342 228Z" fill="#F9C09F"/>
<path d="M185 268C189.333 273.5 200.5 281.5 210.5 269.5" stroke="#5D4942" stroke-width="7" stroke-linecap="round"/>
<path d="M196.5 217.5C192.5 223.333 185.4 239.5 189 243.5C193.5 248.5 199 246.5 200 246.5" stroke="#5D4942" stroke-width="7" stroke-linecap="round"/>
<path d="M241 186C246.288 183.559 258.667 191 264 194.5C261 194.167 256.5 192.5 251 191C246.685 189.823 234.5 189 241 186Z" fill="#35484F" stroke="#35484F"/>
<path d="M141.5 192C148.167 188.5 162.1 182 164.5 184C167.5 186.5 164.5 188.5 162.5 188.5C160.5 188.5 155.5 188.5 144.5 193C138.493 195.457 135.872 196.657 134.919 197.17L134.5 197.5C134.394 197.5 134.476 197.409 134.919 197.17L141.5 192Z" fill="#35484F"/>
<path d="M141.5 192C148.167 188.5 162.1 182 164.5 184C167.5 186.5 164.5 188.5 162.5 188.5C160.5 188.5 155.5 188.5 144.5 193C135.7 196.6 134.167 197.5 134.5 197.5L141.5 192Z" stroke="#35484F" stroke-linecap="round"/>
<path d="M133.706 236.202C131.659 240.731 136.557 247.366 144.646 251.021C152.734 254.676 160.951 253.967 162.997 249.437C165.044 244.907 155.572 236.206 152.057 234.618C143.969 230.963 137.412 228 133.706 236.202Z" fill="#F6816F"/>
<path d="M141.5 434.5H104C105.333 416.333 103.999 361.5 99.9997 334C91.8559 278 95.5 225.5 100.5 200C104.029 182 113.25 167 115 160C121 136 148.333 113.833 160.5 107.5L189.5 104.5H244L297 121.5L333.5 151.5L372 196.5L382.5 325.5L317 434H295C298 411.167 304.2 362.4 305 350C306 334.5 306.5 266.5 306.5 263.5C306.5 260.5 308.5 250 312 241C315.5 232 324.5 228 326.5 226.5C328.5 225 333 217 333.5 209.5C334 202 328.5 199.5 324.5 196.5C320.5 193.5 313.5 194.5 288 190C267.6 186.4 256.5 159.5 253.5 146.5C213 163.5 197.38 159.644 183.5 163.5C165.5 168.5 162.926 170.38 154 176C140.5 184.5 137.5 216.5 137 222.5C136.5 228.5 134 239.5 132 250C130 260.5 132 285 132 293.5C132 300.019 138 352 139 356C139.8 359.2 141 377.667 141.5 386.5V434.5Z" fill="#FFAE00" stroke="#FFAE00"/>
<path d="M131.056 99.2777C130.722 112.273 135.292 121.94 144.769 127.395C158.196 133.399 174.757 131.83 176.709 131.194C190.269 129.042 198.506 126.313 200.227 125.818C220.344 120.025 238.775 111.922 232.897 84.6464C230.083 64.4066 203.748 49.4203 178.038 52.9952C152.328 56.5701 131.581 78.8499 131.056 99.2777Z" fill="#FFB92A"/>
<path d="M147.505 139.999C136.211 139.335 137.5 128.666 139.5 122.5C150.333 113.166 177.443 95.352 196.5 88.9997C211.5 83.9997 230.5 78.0001 271 80.5C314 83.1542 361.7 110.3 384.5 161.5C397.333 184.166 421.5 272 421.5 350.5L317.503 433.5C322.003 409.166 327.503 383.5 333.003 351.5C334.565 342.413 338.243 299.968 341.503 231.5C342.827 203.706 334 176.5 324.5 161.5C318.659 151.703 319 150.5 304.003 134.999C286.757 117.174 250.67 114.166 233.503 115.999C217.342 116.299 194.912 128.625 176.505 134.999C164.16 139.274 156.003 140.499 147.505 139.999Z" fill="#FF9000" stroke="#FF9000"/>
<path d="M395.5 139C390.5 151 382.382 157.959 371.504 159.071C356.795 159.071 342.318 150.877 340.795 149.5C329.295 142 322.889 136.146 321.521 134.992C305.521 121.492 292.003 106.571 308.503 84.0705C319.334 66.7427 349.492 63.812 371.503 77.5706C393.514 91.3292 403.359 120.137 395.5 139Z" fill="#FFAE00"/>
<ellipse cx="244.211" cy="212.954" rx="6.53125" ry="9.5" transform="rotate(4.21216 244.211 212.954)" fill="#5D4942"/>
<ellipse cx="6.53125" cy="9.5" rx="6.53125" ry="9.5" transform="matrix(0.997299 -0.0734499 -0.0734499 -0.997299 154.396 222.908)" fill="#5D4942"/>
<path d="M280 250C280 257.732 268.807 264 255 264C241.193 264 230 257.732 230 250C230 242.268 249 236 255 236C268.807 236 280 236 280 250Z" fill="#F6816F"/>
</g>
<defs>
<clipPath id="clip0_320_104">
<rect width="490" height="490" rx="245" fill="white"/>
</clipPath>
</defs>
</svg>
