<svg width="20" height="20" viewBox="0 0 20 20" fill="none" xmlns="http://www.w3.org/2000/svg">
<g clip-path="url(#clip0_327_20)">
<path d="M14.7002 18.125H5.32519C4.80362 18.1249 4.28896 18.0057 3.82048 17.7764C3.35199 17.5472 2.94205 17.2139 2.62192 16.8022C2.30179 16.3904 2.07993 15.911 1.97327 15.4004C1.8666 14.8899 1.87795 14.3617 2.00643 13.8562L3.90643 6.09998C3.94065 5.96131 4.02134 5.83854 4.13506 5.75212C4.24877 5.66569 4.38866 5.62082 4.53144 5.62498H15.0002C15.138 5.61867 15.2741 5.65817 15.3872 5.73731C15.5002 5.81645 15.5839 5.93079 15.6252 6.06248L17.9877 13.6625C18.1492 14.1787 18.1864 14.7257 18.0963 15.2591C18.0061 15.7924 17.7912 16.2968 17.4689 16.7312C17.152 17.1675 16.7353 17.5216 16.2537 17.7641C15.772 18.0065 15.2394 18.1303 14.7002 18.125ZM5.00019 6.87498L3.19393 14.1562C3.1135 14.4775 3.10705 14.8128 3.17508 15.1369C3.24311 15.461 3.38384 15.7654 3.58666 16.0272C3.78947 16.289 4.04908 16.5014 4.34591 16.6482C4.64273 16.7951 4.96903 16.8726 5.30018 16.875H14.6752C15.0153 16.8755 15.3507 16.7954 15.6539 16.6411C15.957 16.4868 16.2192 16.2628 16.4189 15.9875C16.6244 15.7106 16.7615 15.389 16.8191 15.0491C16.8767 14.7091 16.8531 14.3603 16.7502 14.0312L14.5502 6.87498H5.00019Z" fill="black"/>
<path d="M12.5 10.625C12.3342 10.625 12.1753 10.5592 12.0581 10.4419C11.9408 10.3247 11.875 10.1658 11.875 10V5C11.875 4.50272 11.6775 4.02581 11.3258 3.67417C10.9742 3.32254 10.4973 3.125 10 3.125C9.50272 3.125 9.02581 3.32254 8.67417 3.67417C8.32254 4.02581 8.125 4.50272 8.125 5V10C8.125 10.1658 8.05915 10.3247 7.94194 10.4419C7.82473 10.5592 7.66576 10.625 7.5 10.625C7.33424 10.625 7.17527 10.5592 7.05806 10.4419C6.94085 10.3247 6.875 10.1658 6.875 10V5C6.875 4.1712 7.20424 3.37634 7.79029 2.79029C8.37634 2.20424 9.1712 1.875 10 1.875C10.8288 1.875 11.6237 2.20424 12.2097 2.79029C12.7958 3.37634 13.125 4.1712 13.125 5V10C13.125 10.1658 13.0592 10.3247 12.9419 10.4419C12.8247 10.5592 12.6658 10.625 12.5 10.625Z" fill="black"/>
</g>
<defs>
<clipPath id="clip0_327_20">
<rect width="20" height="20" fill="white"/>
</clipPath>
</defs>
</svg>
