<svg width="48" height="48" viewBox="0 0 48 48" fill="none" xmlns="http://www.w3.org/2000/svg">
<path d="M24 16C21.8783 16 19.8434 16.8429 18.3431 18.3431C16.8429 19.8434 16 21.8783 16 24C16 26.1217 16.8429 28.1566 18.3431 29.6569C19.8434 31.1571 21.8783 32 24 32C26.1217 32 28.1566 31.1571 29.6569 29.6569C31.1571 28.1566 32 26.1217 32 24C32 21.8783 31.1571 19.8434 29.6569 18.3431C28.1566 16.8429 26.1217 16 24 16Z" fill="#7A7A7A"/>
<path fill-rule="evenodd" clip-rule="evenodd" d="M11.4305 2.68779C19.7039 1.77074 28.0532 1.77074 36.3266 2.68779C40.8464 3.19238 44.4904 6.75066 45.0212 11.2872C46.0023 19.6763 46.0023 28.1512 45.0212 36.5403C44.4904 41.0768 40.8464 44.6351 36.329 45.142C28.0548 46.0593 19.7047 46.0593 11.4305 45.142C6.91067 44.6351 3.26671 41.0768 2.73594 36.5426C1.75469 28.1527 1.75469 19.6771 2.73594 11.2872C3.26671 6.75066 6.91067 3.19238 11.4305 2.68779ZM35.7792 9.63299C35.1479 9.63299 34.5425 9.88375 34.0962 10.3301C33.6498 10.7765 33.399 11.3819 33.399 12.0131C33.399 12.6444 33.6498 13.2497 34.0962 13.6961C34.5425 14.1425 35.1479 14.3932 35.7792 14.3932C36.4104 14.3932 37.0158 14.1425 37.4622 13.6961C37.9085 13.2497 38.1593 12.6444 38.1593 12.0131C38.1593 11.3819 37.9085 10.7765 37.4622 10.3301C37.0158 9.88375 36.4104 9.63299 35.7792 9.63299ZM12.573 23.9137C12.573 20.9153 13.7641 18.0397 15.8843 15.9195C18.0045 13.7993 20.8801 12.6081 23.8786 12.6081C26.877 12.6081 29.7526 13.7993 31.8728 15.9195C33.993 18.0397 35.1841 20.9153 35.1841 23.9137C35.1841 26.9121 33.993 29.7878 31.8728 31.908C29.7526 34.0282 26.877 35.2193 23.8786 35.2193C20.8801 35.2193 18.0045 34.0282 15.8843 31.908C13.7641 29.7878 12.573 26.9121 12.573 23.9137Z" fill="#7A7A7A"/>
</svg>
