<svg width="26" height="26" viewBox="0 0 26 26" fill="none" xmlns="http://www.w3.org/2000/svg">
<path d="M20.0483 8.19612C20.2928 8.54618 20.5068 8.91654 20.6881 9.30315L23.3186 10.7656C23.647 12.2368 23.6505 13.7618 23.3287 15.2344L20.6881 16.6969C20.5068 17.0835 20.2928 17.4539 20.0483 17.8039L20.099 20.8203C18.9842 21.8362 17.6648 22.6015 16.2295 23.0649L13.6397 21.511C13.2136 21.5414 12.786 21.5414 12.36 21.511L9.78028 23.0547C8.34044 22.5998 7.01666 21.8374 5.9006 20.8203L5.95138 17.8141C5.70892 17.4592 5.49497 17.0856 5.31153 16.6969L2.68107 15.2344C2.35261 13.7633 2.34915 12.2382 2.67091 10.7656L5.31153 9.30315C5.49281 8.91654 5.70687 8.54618 5.95138 8.19612L5.9006 5.17971C7.0154 4.16385 8.33483 3.39851 9.77013 2.93518L12.36 4.48909C12.786 4.45861 13.2136 4.45861 13.6397 4.48909L16.2193 2.94534C17.6592 3.40023 18.983 4.16262 20.099 5.17971L20.0483 8.19612Z" fill="black" stroke="black" stroke-width="2" stroke-linecap="round" stroke-linejoin="round"/>
<path d="M13 17.875C15.6924 17.875 17.875 15.6924 17.875 13C17.875 10.3076 15.6924 8.125 13 8.125C10.3076 8.125 8.125 10.3076 8.125 13C8.125 15.6924 10.3076 17.875 13 17.875Z" stroke="white" stroke-width="2" stroke-linecap="round" stroke-linejoin="round"/>
</svg>
