<svg width="19" height="20" viewBox="0 0 19 20" fill="none" xmlns="http://www.w3.org/2000/svg">
<g clip-path="url(#clip0_116_946)">
<path d="M9.67693 1.57861C9.67693 8.38496 7.40813 10.6537 0.601807 10.6537C7.40815 10.6537 9.67693 12.9225 9.67693 19.7289C9.67693 12.9225 11.9457 10.6537 18.7521 10.6537C11.9457 10.6537 9.67693 8.38496 9.67693 1.57861Z" fill="#000"/>
</g>
<g clip-path="url(#clip1_116_946)">
<path d="M4.16777 5.36865C4.16777 6.64484 3.74237 7.07023 2.46619 7.07023C3.74238 7.07023 4.16777 7.49563 4.16777 8.77181C4.16777 7.49563 4.59317 7.07023 5.86936 7.07023C4.59317 7.07023 4.16777 6.64484 4.16777 5.36865Z" fill="#000"/>
</g>
<g clip-path="url(#clip2_116_946)">
<path d="M15.3922 0.150879C15.3922 2.70325 14.5414 3.55404 11.989 3.55404C14.5414 3.55404 15.3922 4.40484 15.3922 6.9572C15.3922 4.40483 16.243 3.55404 18.7954 3.55404C16.243 3.55404 15.3922 2.70325 15.3922 0.150879Z" fill="#000"/>
</g>
<defs>
<clipPath id="clip0_116_946">
<rect width="18.8233" height="18.8233" fill="white" transform="translate(0 1.17676)"/>
</clipPath>
<clipPath id="clip1_116_946">
<rect width="3.52938" height="3.52937" fill="white" transform="translate(2.35339 5.29346)"/>
</clipPath>
<clipPath id="clip2_116_946">
<rect width="7.05875" height="7.05875" fill="white" transform="translate(11.7633)"/>
</clipPath>
</defs>
</svg>