<svg width="24" height="24" viewBox="0 0 24 24" fill="none" xmlns="http://www.w3.org/2000/svg">
<path d="M17.982 18.725C17.2833 17.7999 16.3793 17.0496 15.3412 16.5334C14.3031 16.0171 13.1594 15.749 12 15.75C10.8407 15.749 9.6969 16.0171 8.65883 16.5334C7.62077 17.0496 6.71675 17.7999 6.01801 18.725M17.982 18.725C19.3455 17.5122 20.3071 15.9136 20.7412 14.1411C21.1753 12.3686 21.0603 10.5061 20.4115 8.80049C19.7627 7.09488 18.6107 5.62679 17.1084 4.59091C15.6061 3.55503 13.8244 3.00031 11.9995 3.00031C10.1747 3.00031 8.39295 3.55503 6.89062 4.59091C5.38829 5.62679 4.23634 7.09488 3.58755 8.80049C2.93875 10.5061 2.82376 12.3686 3.25783 14.1411C3.6919 15.9136 4.65451 17.5122 6.01801 18.725M17.982 18.725C16.336 20.1932 14.2056 21.0032 12 21C9.79404 21.0034 7.66425 20.1934 6.01801 18.725M15 9.75001C15 10.5457 14.6839 11.3087 14.1213 11.8713C13.5587 12.4339 12.7957 12.75 12 12.75C11.2044 12.75 10.4413 12.4339 9.87869 11.8713C9.31608 11.3087 9.00001 10.5457 9.00001 9.75001C9.00001 8.95436 9.31608 8.1913 9.87869 7.62869C10.4413 7.06608 11.2044 6.75001 12 6.75001C12.7957 6.75001 13.5587 7.06608 14.1213 7.62869C14.6839 8.1913 15 8.95436 15 9.75001Z" stroke="black" stroke-width="1.5" stroke-linecap="round" stroke-linejoin="round"/>
<path d="M11.5 7L9.5 8L9 10.5L10 11.5L11 12H13.5L15 10L13.5 7.5L11.5 7Z" fill="black"/>
<circle cx="12" cy="12" r="9.15" stroke="black" stroke-width="1.7"/>
<path d="M12 15C8.5 15 6.55455 17.1091 5.5 18.1636C6.20303 19.0424 8.10902 20.8 12.3272 20.8C17.0727 20.8 17.7941 18.6909 18.3213 18.1636C17.5 17 16 15 12 15Z" fill="black" stroke="black" stroke-width="0.3"/>
</svg>
