<svg width="48" height="48" viewBox="0 0 48 48" fill="none" xmlns="http://www.w3.org/2000/svg">
<mask id="mask0_233_21" style="mask-type:luminance" maskUnits="userSpaceOnUse" x="4" y="4" width="40" height="40">
<path d="M4 4H44V44H4V4Z" fill="white"/>
</mask>
<g mask="url(#mask0_233_21)">
<path d="M27.7684 4.29442L26.5684 4.12599C22.962 3.60527 19.2818 4.12043 15.9569 5.6114C12.6321 7.10237 9.7995 9.50772 7.78947 12.547C5.65085 15.4523 4.37597 18.9023 4.11154 22.5001C3.8471 26.0979 4.60386 29.6972 6.29474 32.8839C6.46778 33.2033 6.57552 33.5539 6.61166 33.9154C6.64781 34.2768 6.61164 34.6418 6.50526 34.9892C5.64211 37.9576 4.84211 40.9471 4 44.0839L5.05263 43.7681C7.89474 43.0102 10.7368 42.2523 13.5789 41.5576C14.1788 41.4329 14.8023 41.4915 15.3684 41.726C17.9183 42.9705 20.7049 43.6551 23.5412 43.734C26.3774 43.8129 29.1977 43.2841 31.8129 42.1833C34.428 41.0825 36.7774 39.435 38.7034 37.3515C40.6294 35.268 42.0874 32.7966 42.9797 30.1031C43.8719 27.4097 44.1777 24.5566 43.8766 21.7353C43.5754 18.9139 42.6742 16.1897 41.2336 13.7453C39.7929 11.3009 37.846 9.19293 35.5236 7.56289C33.2012 5.93285 30.557 4.81843 27.7684 4.29442ZM33.0737 31.9155C32.3085 32.6005 31.3755 33.0705 30.3696 33.2776C29.3637 33.4847 28.3209 33.4215 27.3474 33.0944C22.9359 31.8522 19.1087 29.0844 16.5474 25.2839C15.569 23.9397 14.7825 22.4659 14.2105 20.9049C13.9007 19.9992 13.8449 19.0259 14.049 18.0907C14.2531 17.1555 14.7094 16.294 15.3684 15.5997C15.6892 15.1902 16.1259 14.8869 16.6216 14.7292C17.1173 14.5715 17.6489 14.5667 18.1474 14.7155C18.5684 14.8207 18.8632 15.4313 19.2421 15.8944C19.5495 16.7639 19.9095 17.6144 20.3158 18.4418C20.6241 18.8639 20.7528 19.3908 20.6739 19.9075C20.595 20.4243 20.3149 20.8888 19.8947 21.1997C18.9474 22.0418 19.0947 22.7365 19.7684 23.6839C21.2578 25.8295 23.3128 27.5202 25.7053 28.5681C26.3789 28.8628 26.8842 28.926 27.3263 28.2313C27.5158 27.9576 27.7684 27.726 27.9789 27.4734C29.2 25.9365 28.8211 25.9576 30.7579 26.7997C31.3747 27.0586 31.9726 27.3618 32.5474 27.7049C33.1158 28.0418 33.9789 28.3997 34.1053 28.9049C34.2268 29.4531 34.1948 30.0241 34.0128 30.5553C33.8308 31.0864 33.5059 31.5571 33.0737 31.9155Z" fill="#7A7A7A"/>
</g>
</svg>
