<svg width="24" height="24" viewBox="0 0 24 24" fill="none" xmlns="http://www.w3.org/2000/svg">
<path d="M14.25 9.75V5.25M14.25 9.75H18.75M14.25 9.75L20.25 3.75M17.25 21.75C8.966 21.75 2.25 15.034 2.25 6.75V4.5C2.25 3.90326 2.48705 3.33097 2.90901 2.90901C3.33097 2.48705 3.90326 2.25 4.5 2.25H5.872C6.388 2.25 6.838 2.601 6.963 3.102L8.069 7.525C8.179 7.965 8.015 8.427 7.652 8.698L6.359 9.668C6.17393 9.80198 6.037 9.99207 5.96854 10.21C5.90009 10.428 5.90375 10.6623 5.979 10.878C6.58087 12.5151 7.53141 14.0018 8.76478 15.2352C9.99815 16.4686 11.4849 17.4191 13.122 18.021C13.563 18.183 14.05 18.017 14.332 17.641L15.302 16.348C15.4348 16.1708 15.6169 16.0366 15.8256 15.9625C16.0342 15.8883 16.2601 15.8773 16.475 15.931L20.898 17.037C21.398 17.162 21.75 17.612 21.75 18.128V19.5C21.75 20.0967 21.5129 20.669 21.091 21.091C20.669 21.5129 20.0967 21.75 19.5 21.75H17.25Z" stroke="white" stroke-linecap="round" stroke-linejoin="round"/>
</svg>
