<svg width="33" height="33" viewBox="0 0 33 33" fill="none" xmlns="http://www.w3.org/2000/svg">
<path d="M31.625 4.12515C30.3083 5.05394 28.8504 5.76431 27.3075 6.22891C26.4794 5.27673 25.3788 4.60186 24.1547 4.29555C22.9305 3.98925 21.6418 4.0663 20.4629 4.51628C19.2839 4.96626 18.2716 5.76746 17.5628 6.81152C16.8541 7.85557 16.4831 9.09212 16.5 10.3539V11.7289C14.0836 11.7916 11.6893 11.2556 9.53014 10.1689C7.37102 9.08214 5.51419 7.47828 4.125 5.50015C4.125 5.50015 -1.375 17.8752 11 23.3752C8.16822 25.2974 4.79484 26.2612 1.375 26.1252C13.75 33.0002 28.875 26.1252 28.875 10.3127C28.8737 9.92965 28.8369 9.5476 28.765 9.17141C30.1683 7.78746 31.1586 6.04014 31.625 4.12515Z" stroke="white" stroke-width="2" stroke-linecap="round" stroke-linejoin="round"/>
</svg>
