<svg width="31" height="31" viewBox="0 0 31 31" fill="none" xmlns="http://www.w3.org/2000/svg">
<path d="M15.5693 0.224982C12.9302 0.243392 10.3408 0.945292 8.05366 2.26226C5.7665 3.57923 3.8596 5.46634 2.51882 7.73962C1.17805 10.0129 0.449155 12.5948 0.403196 15.2336C0.357236 17.8724 0.995779 20.4781 2.25658 22.7967C2.27908 22.8574 2.27908 22.9241 2.25658 22.9847L1.17558 30.3637C1.16884 30.4106 1.17353 30.4584 1.18926 30.5031C1.20499 30.5478 1.23128 30.588 1.26591 30.6203C1.30053 30.6526 1.34245 30.6761 1.3881 30.6887C1.43375 30.7013 1.48178 30.7027 1.52808 30.6927L8.84833 29.2592C8.90877 29.2356 8.97588 29.2356 9.03633 29.2592C11.0748 30.2422 13.3063 30.7599 15.5693 30.775C19.5967 30.7576 23.4581 29.1684 26.331 26.346C29.2039 23.5235 30.8613 19.6909 30.9501 15.6645C30.972 13.6358 30.5895 11.6231 29.8251 9.74385C29.0606 7.8646 27.9294 6.15646 26.4976 4.71916C25.0658 3.28186 23.3619 2.14419 21.4856 1.37256C19.6093 0.600936 17.5981 0.210818 15.5693 0.224982ZM15.6751 28.096C13.5092 28.1005 11.3793 27.5417 9.49458 26.4745C9.42586 26.452 9.35179 26.452 9.28308 26.4745L7.25033 26.874L5.76983 27.1677L4.27758 27.4615L4.50083 25.9457L4.73583 24.3007L5.01783 22.3855C5.04116 22.3209 5.04116 22.2503 5.01783 22.1857C3.53538 19.8187 2.88168 17.0261 3.15952 14.247C3.43736 11.4679 4.63098 8.85992 6.55269 6.8332C8.47441 4.80648 11.0152 3.47594 13.7756 3.05079C16.536 2.62563 19.3595 3.12998 21.8019 4.48453C24.2444 5.83908 26.1675 7.96699 27.2687 10.5337C28.3699 13.1004 28.5868 15.9603 27.8853 18.6637C27.1837 21.3671 25.6036 23.7607 23.3934 25.4682C21.1831 27.1756 18.468 28.1 15.6751 28.096ZM10.7048 7.89773H11.4216C11.5474 7.89556 11.6715 7.92711 11.781 7.98909C11.8905 8.05108 11.9814 8.14124 12.0443 8.25023C12.1319 8.37183 12.1993 8.50672 12.2441 8.64973C12.5496 9.38998 13.2898 11.6225 13.2898 11.6225C13.3286 11.8076 13.3222 11.9993 13.271 12.1813C13.2199 12.3634 13.1256 12.5304 12.9961 12.6682L12.1031 13.5612C12.0142 13.6482 11.9559 13.7616 11.9369 13.8844C11.9178 14.0072 11.939 14.1329 11.9973 14.2427C13.0773 16.3594 14.7678 18.1032 16.8501 19.2482C17.0508 19.3304 17.2722 19.3473 17.4831 19.2967C17.6939 19.2461 17.8835 19.1305 18.0251 18.9662L19.3176 17.474C19.3629 17.4212 19.4248 17.3854 19.4932 17.3726C19.5615 17.3598 19.6322 17.3707 19.6936 17.4035L23.0541 19.2835C23.1014 19.3108 23.1405 19.3502 23.1673 19.3978C23.1942 19.4453 23.2078 19.4991 23.2068 19.5537V20.0472C23.209 20.2153 23.1812 20.3824 23.1246 20.5407C22.8814 21.2725 22.4049 21.9044 21.7682 22.3395C21.1315 22.7745 20.3697 22.9888 19.5996 22.9495C16.6268 22.9495 12.7493 20.1177 10.9633 17.8852C9.17733 15.6527 7.97883 12.962 7.97883 11.7752C7.97609 11.0691 8.13825 10.3721 8.45239 9.73978C8.76654 9.10741 9.22399 8.55712 9.78833 8.13273C10.0619 7.96085 10.3823 7.8787 10.7048 7.89773Z" fill="white"/>
</svg>
