<svg width="32" height="32" viewBox="0 0 32 32" fill="none" xmlns="http://www.w3.org/2000/svg">
<path d="M5.0587 16.04C5.7747 12.456 6.13336 10.6667 7.31603 9.512C7.53461 9.29926 7.77103 9.10566 8.0227 8.93333C9.3867 8 11.2134 8 14.8667 8H17.1374C20.7894 8 22.6147 8 23.9774 8.93333C24.2307 9.10667 24.4667 9.30133 24.684 9.51333C25.868 10.6667 26.2267 12.4573 26.9427 16.0387C27.9707 21.18 28.4854 23.7507 27.3014 25.572C27.088 25.9027 26.8374 26.208 26.5547 26.4827C25 28 22.38 28 17.1374 28H14.8667C9.6227 28 7.00136 28 5.4467 26.4827C5.16541 26.2075 4.91544 25.9021 4.70136 25.572C3.51736 23.7507 4.03203 21.18 5.06136 16.0387L5.0587 16.04Z" stroke="white" stroke-width="1.75"/>
<path d="M20.0001 14.3334C20.7365 14.3334 21.3334 13.7364 21.3334 13C21.3334 12.2636 20.7365 11.6667 20.0001 11.6667C19.2637 11.6667 18.6667 12.2636 18.6667 13C18.6667 13.7364 19.2637 14.3334 20.0001 14.3334Z" fill="white"/>
<path d="M12.0001 14.3334C12.7365 14.3334 13.3334 13.7364 13.3334 13C13.3334 12.2636 12.7365 11.6667 12.0001 11.6667C11.2637 11.6667 10.6667 12.2636 10.6667 13C10.6667 13.7364 11.2637 14.3334 12.0001 14.3334Z" fill="white"/>
<path d="M12 8.00002V6.66669C12 5.60582 12.4214 4.58841 13.1716 3.83826C13.9217 3.08811 14.9391 2.66669 16 2.66669C17.0609 2.66669 18.0783 3.08811 18.8284 3.83826C19.5786 4.58841 20 5.60582 20 6.66669V8.00002" stroke="white" stroke-width="1.75" stroke-linecap="round"/>
</svg>
