<svg width="24" height="24" viewBox="0 0 24 24" fill="none" xmlns="http://www.w3.org/2000/svg">
<path d="M20.8 9.2C20.4 8.8 20.2 8.3 20.2 7.8C20.2 5.6 18.4 3.8 16.2 3.8C15.7 3.8 15.2 3.6 14.8 3.2C13.2 1.6 10.7 1.6 9.1 3.2C8.8 3.6 8.3 3.8 7.8 3.8C5.6 3.8 3.8 5.6 3.8 7.8C3.8 8.3 3.6 8.8 3.2 9.2C1.6 10.8 1.6 13.3 3.2 14.9C3.6 15.3 3.8 15.8 3.8 16.3C3.8 18.5 5.6 20.3 7.8 20.3C8.3 20.3 8.8 20.5 9.2 20.9C10 21.6 11 22 12 22C13 22 14.1 21.6 14.8 20.8C15.2 20.4 15.7 20.2 16.2 20.2C18.4 20.2 20.2 18.4 20.2 16.2C20.2 15.7 20.4 15.2 20.7 14.8C22.4 13.3 22.4 10.7 20.8 9.2ZM19.4 13.4C18.6 14.2 18.2 15.2 18.2 16.2C18.2 17.3 17.3 18.2 16.2 18.2C15.1 18.2 14.1 18.6 13.4 19.4C12.6 20.2 11.4 20.2 10.6 19.4C9.8 18.6 8.8 18.2 7.8 18.2C6.7 18.2 5.8 17.3 5.8 16.2C5.8 15.1 5.4 14.1 4.6 13.4C3.8 12.6 3.8 11.4 4.6 10.6C5.4 9.8 5.8 8.8 5.8 7.8C5.8 6.7 6.7 5.8 7.8 5.8C8.9 5.8 9.9 5.4 10.6 4.6C11 4.2 11.5 4 12 4C12.5 4 13 4.2 13.4 4.6C14.2 5.4 15.2 5.8 16.2 5.8C17.3 5.8 18.2 6.7 18.2 7.8C18.2 8.9 18.6 9.9 19.4 10.6C20.2 11.4 20.2 12.6 19.4 13.4Z" fill="#FFD130" />
<path d="M14 15C14.5523 15 15 14.5523 15 14C15 13.4477 14.5523 13 14 13C13.4477 13 13 13.4477 13 14C13 14.5523 13.4477 15 14 15Z" fill="#FFD130" />
<path d="M10 11C10.5523 11 11 10.5523 11 10C11 9.44772 10.5523 9 10 9C9.44772 9 9 9.44772 9 10C9 10.5523 9.44772 11 10 11Z" fill="#FFD130" />
<path d="M13.3 9.3L9.3 13.3C8.9 13.7 8.9 14.3 9.3 14.7C9.5 14.9 9.7 15 10 15C10.3 15 10.5 14.9 10.7 14.7L14.7 10.7C15.1 10.3 15.1 9.7 14.7 9.3C14.3 8.9 13.7 8.9 13.3 9.3Z" fill="#FFD130" />
</svg>