<svg xmlns="http://www.w3.org/2000/svg" width="1000" height="1000" fill="none"><path fill="#fff" d="M827.323 820.375c-28.325 33.422-78.457 39.429-108.673 7.707a473.5054 473.5054 0 0 1-81.355-116.219 473.5018 473.5018 0 0 1-49.289-212.814 473.4999 473.4999 0 0 1 51.49-212.292 473.4885 473.4885 0 0 1 83.398-116.237c30.235-30.933 79.619-24.748 107.593 8.243 30.833 36.362 23.041 89.881-10.654 123.608-16.905 16.921-31.741 35.282-41.732 54.917a317.9686 317.9686 0 0 0-34.578 142.566 317.9748 317.9748 0 0 0 33.1 142.917c9.714 19.589 24.044 37.644 40.428 54.265 33.392 33.876 41.026 87.051 10.272 123.339ZM172.177 820.204c28.325 33.422 78.457 39.43 108.673 7.708a473.5431 473.5431 0 0 0 81.355-116.219 473.5049 473.5049 0 0 0 49.289-212.814 473.504 473.504 0 0 0-134.888-328.53c-30.235-30.932-79.619-24.748-107.593 8.244-30.833 36.362-23.041 89.881 10.654 123.608 16.905 16.92 31.741 35.281 41.732 54.917a317.9622 317.9622 0 0 1 34.578 142.566 317.9737 317.9737 0 0 1-33.1 142.916c-9.714 19.589-24.044 37.645-40.428 54.265-33.392 33.876-41.026 87.051-10.272 123.339Z"/><path fill="url(#a)" d="M408 410.5C333.093 398.446 246 357 185 307c14 16 25 29 35 47 34.859 62.746 37.323 113.547 34.5 178-2.409 55-32 122.5-57.5 150.5 33.5-25 161-85.5 211.5-93s84.5-13.5 184.5 0c67.5 9.112 180 72.667 219 102.5-29-31.5-41-58-52-88.5-.541-1.5-9.5-29.5-14-63-3.5-32-4-57 3-97 2.3-13.142 4-21 12-46.5 14.5-39 25.907-58.885 52.5-88.5-25.333 17.667-103.706 75.379-229 99l-.758.143c-60.48 11.402-89.103 16.799-175.742 2.857Z"/><defs><linearGradient id="a" x1="257" x2="746.5" y1="500" y2="499" gradientUnits="userSpaceOnUse"><stop offset=".2926" stop-color="#5800BF" stop-opacity=".33"/><stop offset=".7693" stop-color="#6169FF" stop-opacity=".8"/><stop offset="1" stop-color="#0056B7" stop-opacity=".33"/></linearGradient></defs></svg>