<svg width="1000" height="1000" viewBox="0 0 1000 1000" fill="none" xmlns="http://www.w3.org/2000/svg">
<rect width="1000" height="1000" rx="166" fill="black"/>
<path d="M827.323 820.375C798.998 853.797 748.866 859.804 718.65 828.082C685.951 793.754 658.489 754.601 637.295 711.863C604.503 645.737 587.624 572.859 588.006 499.049C588.388 425.239 606.021 352.541 639.496 286.757C661.315 243.879 689.471 204.713 722.894 170.52C753.129 139.587 802.513 145.772 830.487 178.763C861.32 215.125 853.528 268.644 819.833 302.371C802.928 319.292 788.092 337.653 778.101 357.288C755.62 401.466 743.779 450.287 743.523 499.854C743.266 549.422 754.601 598.363 776.623 642.771C786.337 662.36 800.667 680.415 817.051 697.036C850.443 730.912 858.077 784.087 827.323 820.375Z" fill="white"/>
<path d="M172.177 820.204C200.502 853.626 250.634 859.634 280.85 827.912C313.549 793.583 341.011 754.43 362.205 711.693C394.997 645.566 411.876 572.689 411.494 498.879C411.112 425.069 393.479 352.37 360.004 286.586C338.185 243.709 310.029 204.542 276.606 170.349C246.371 139.417 196.987 145.601 169.013 178.593C138.18 214.955 145.972 268.474 179.667 302.201C196.572 319.121 211.408 337.482 221.399 357.118C243.88 401.295 255.721 450.116 255.977 499.684C256.234 549.251 244.899 598.192 222.877 642.6C213.163 662.189 198.833 680.245 182.449 696.865C149.057 730.741 141.423 783.916 172.177 820.204Z" fill="white"/>
<path d="M408 410.5C333.093 398.446 246 357 185 307C199 323 210 336 220 354C254.859 416.746 257.323 467.547 254.5 532C252.091 587 222.5 654.5 197 682.5C230.5 657.5 358 597 408.5 589.5C459 582 493 576 593 589.5C660.5 598.612 773 662.167 812 692C783 660.5 771 634 760 603.5C759.459 602 750.5 574 746 540.5C742.5 508.5 742 483.5 749 443.5C751.3 430.358 753 422.5 761 397C775.5 358 786.907 338.115 813.5 308.5C788.167 326.167 709.794 383.879 584.5 407.5L583.742 407.643C523.262 419.045 494.639 424.442 408 410.5Z" fill="url(#paint0_linear_191_15)"/>
<defs>
<linearGradient id="paint0_linear_191_15" x1="257" y1="500" x2="746.5" y2="499" gradientUnits="userSpaceOnUse">
<stop offset="0.292592" stop-color="#5800BF" stop-opacity="0.33"/>
<stop offset="0.769262" stop-color="#6169FF" stop-opacity="0.8"/>
<stop offset="1" stop-color="#0056B7" stop-opacity="0.33"/>
</linearGradient>
</defs>
</svg>
