<svg width="24" height="24" viewBox="0 0 24 24" fill="none" xmlns="http://www.w3.org/2000/svg">
<path d="M5.99997 5C2.69895 5.47158 3 7.5 3 7.5H19.5C19.5 6.5 19.5 5 19 4.00003C18.4343 2.86866 17.1666 2.83336 16.5 3.00003C12.8333 3.83336 8.60871 4.62732 5.99997 5Z" stroke="black" stroke-width="1.5"/>
<path d="M3 18V7.5H18C20 7.5 21 9.19199 21 10.5V18C21 19.2 20 21 18 21H6C4 21 3 19.5 3 18Z" stroke="black" stroke-width="1.5"/>
<path d="M15.9999 16.5H20.9999L21 12H15.9999C15 12 13.5 12.1963 13.5 14.5C13.5 16 15 16.5 15.9999 16.5Z" stroke="black" stroke-width="1.5"/>
</svg>